<svg width="93" height="96" viewBox="0 0 93 96" fill="none" xmlns="http://www.w3.org/2000/svg">
<g clip-path="url(#clip0_4470_3025)">
<path fill-rule="evenodd" clip-rule="evenodd" d="M54.9801 22L72.6963 47.9801L54.9801 73.9602L37.5707 47.9801L54.9801 22Z" stroke="#1563B7" stroke-width="2" stroke-linecap="round" stroke-linejoin="round"/>
<path d="M15 62C22.732 62 29 55.732 29 48C29 40.268 22.732 34 15 34C7.26801 34 1 40.268 1 48C1 55.732 7.26801 62 15 62Z" stroke="#1563B7" stroke-width="2" stroke-linecap="round" stroke-linejoin="round"/>
<path d="M78 29C85.732 29 92 22.732 92 15C92 7.26801 85.732 1 78 1C70.268 1 64 7.26801 64 15C64 22.732 70.268 29 78 29Z" stroke="#1563B7" stroke-width="2" stroke-linecap="round" stroke-linejoin="round"/>
<path d="M78 95C85.732 95 92 88.732 92 81C92 73.268 85.732 67 78 67C70.268 67 64 73.268 64 81C64 88.732 70.268 95 78 95Z" stroke="#1563B7" stroke-width="2" stroke-linecap="round" stroke-linejoin="round"/>
<path d="M37.5 48H29.4844" stroke="#1563B7" stroke-width="2" stroke-linecap="round" stroke-linejoin="round"/>
<path d="M69.5 26.5L64 34.6708" stroke="#1563B7" stroke-width="2" stroke-linecap="round" stroke-linejoin="round"/>
<path d="M69.5 69.5L64 61.3292" stroke="#1563B7" stroke-width="2" stroke-linecap="round" stroke-linejoin="round"/>
<path d="M77.4811 22.476V21C76.5691 20.94 75.7951 20.718 75.1591 20.334C74.5351 19.938 74.0011 19.446 73.5571 18.858L74.6191 17.904C75.0031 18.42 75.4231 18.834 75.8791 19.146C76.3471 19.446 76.8871 19.638 77.4991 19.722V15.096C76.2631 14.82 75.3571 14.418 74.7811 13.89C74.2171 13.35 73.9351 12.612 73.9351 11.676C73.9351 11.196 74.0191 10.77 74.1871 10.398C74.3671 10.014 74.6131 9.684 74.9251 9.408C75.2371 9.132 75.6091 8.916 76.0411 8.76C76.4731 8.592 76.9531 8.484 77.4811 8.436V6.96H78.5971V8.418C79.4131 8.49 80.1151 8.7 80.7031 9.048C81.3031 9.384 81.8191 9.852 82.2511 10.452L81.1531 11.28C80.8531 10.86 80.4931 10.518 80.0731 10.254C79.6531 9.978 79.1551 9.798 78.5791 9.714V13.926L78.7411 13.962C79.9891 14.238 80.8951 14.646 81.4591 15.186C82.0351 15.714 82.3231 16.452 82.3231 17.4C82.3231 18.432 81.9871 19.266 81.3151 19.902C80.6551 20.526 79.7491 20.892 78.5971 21V22.476H77.4811ZM80.9011 17.49C80.9011 16.878 80.7211 16.41 80.3611 16.086C80.0131 15.762 79.4191 15.498 78.5791 15.294V19.722C79.2991 19.626 79.8631 19.386 80.2711 19.002C80.6911 18.606 80.9011 18.102 80.9011 17.49ZM75.3571 11.568C75.3571 12.18 75.5311 12.642 75.8791 12.954C76.2391 13.254 76.7791 13.5 77.4991 13.692V9.714C76.8511 9.798 76.3291 9.996 75.9331 10.308C75.5491 10.62 75.3571 11.04 75.3571 11.568Z" fill="#1563B7"/>
<path d="M78.459 87.216C76.875 87.216 75.639 86.658 74.751 85.542C73.863 84.426 73.419 82.818 73.419 80.718C73.419 78.618 73.863 77.01 74.751 75.894C75.639 74.778 76.875 74.22 78.459 74.22C79.515 74.22 80.391 74.466 81.087 74.958C81.795 75.438 82.347 76.11 82.743 76.974L81.573 77.694C81.321 77.046 80.931 76.53 80.403 76.146C79.875 75.75 79.227 75.552 78.459 75.552C77.511 75.552 76.743 75.834 76.155 76.398C75.567 76.962 75.201 77.712 75.057 78.648H79.683V79.854H74.985V81.582H79.683V82.788H75.057C75.213 83.724 75.579 84.474 76.155 85.038C76.743 85.602 77.511 85.884 78.459 85.884C79.251 85.884 79.917 85.674 80.457 85.254C80.997 84.834 81.399 84.282 81.663 83.598L82.833 84.372C82.641 84.78 82.413 85.158 82.149 85.506C81.885 85.854 81.573 86.154 81.213 86.406C80.865 86.658 80.463 86.856 80.007 87C79.551 87.144 79.035 87.216 78.459 87.216Z" fill="#1563B7"/>
<path d="M15.7428 52.39V55H14.2488V52.39H11.0808V51.184H14.2488V49.456H11.0808V48.25H13.5288L10.1628 42.436H11.8548L15.0048 48.106H15.0948L18.1548 42.436H19.8288L16.4628 48.25H18.9108V49.456H15.7428V51.184H18.9108V52.39H15.7428Z" fill="#1563B7"/>
</g>
<defs>
<clipPath id="clip0_4470_3025">
<rect width="93" height="96" fill="white"/>
</clipPath>
</defs>
</svg>
