<svg width="105" height="44" viewBox="0 0 105 44" fill="none" xmlns="http://www.w3.org/2000/svg">
<g clip-path="url(#clip0_4329_109222)">
<path d="M36 13.5H10V22H36V13.5Z" fill="white"/>
<path d="M36 22H10V30.5H36V22Z" fill="#D52B1E"/>
<path d="M36 19.1666H10V24.8333H36V19.1666Z" fill="#0039A6"/>
</g>
<rect x="10.5" y="14" width="25" height="16" rx="1.5" stroke="#F4F4F4"/>
<path d="M43.9521 16.3359H47.9292C48.7446 16.3359 49.4453 16.458 50.0312 16.7021C50.6221 16.9463 51.0762 17.3076 51.3936 17.7861C51.7109 18.2646 51.8696 18.853 51.8696 19.5513C51.8696 20.1226 51.772 20.6133 51.5767 21.0234C51.3862 21.4287 51.1152 21.7681 50.7637 22.0415C50.417 22.3101 50.0093 22.5249 49.5405 22.686L48.8447 23.0522H45.3877L45.373 21.3384H47.9438C48.3296 21.3384 48.6494 21.27 48.9033 21.1333C49.1572 20.9966 49.3477 20.8062 49.4746 20.562C49.6064 20.3179 49.6724 20.0347 49.6724 19.7124C49.6724 19.3706 49.6089 19.0752 49.4819 18.8262C49.355 18.5771 49.1621 18.3867 48.9033 18.2549C48.6445 18.123 48.3198 18.0571 47.9292 18.0571H46.1494V27H43.9521V16.3359ZM49.9141 27L47.4824 22.2466L49.8042 22.2319L52.2651 26.8975V27H49.9141ZM60.9502 16.3359H63.1401V23.3818C63.1401 24.2021 62.9644 24.8931 62.6128 25.4546C62.2661 26.0161 61.7852 26.4385 61.1699 26.7217C60.5596 27.0049 59.8564 27.1465 59.0605 27.1465C58.2646 27.1465 57.5566 27.0049 56.9365 26.7217C56.3213 26.4385 55.8379 26.0161 55.4863 25.4546C55.1396 24.8931 54.9663 24.2021 54.9663 23.3818V16.3359H57.1636V23.3818C57.1636 23.8604 57.2393 24.251 57.3906 24.5537C57.542 24.8564 57.7593 25.0786 58.0425 25.2202C58.3306 25.3618 58.6699 25.4326 59.0605 25.4326C59.4609 25.4326 59.8003 25.3618 60.0786 25.2202C60.3618 25.0786 60.5767 24.8564 60.7231 24.5537C60.8745 24.251 60.9502 23.8604 60.9502 23.3818V16.3359Z" fill="#292929"/>
<path d="M87.293 19.293L83 23.586L78.707 19.293L77.293 20.707L83 26.414L88.707 20.707L87.293 19.293Z" fill="#292929"/>
<defs>
<clipPath id="clip0_4329_109222">
<rect x="10" y="13.5" width="26" height="17" rx="2" fill="white"/>
</clipPath>
</defs>
</svg>
