<svg width="51" height="52" viewBox="0 0 51 52" fill="none" xmlns="http://www.w3.org/2000/svg">
<rect y="0.5" width="51" height="51" rx="25.5" fill="#62C540"/>
<path fill-rule="evenodd" clip-rule="evenodd" d="M32.9366 19.1024C32.0356 18.1956 30.9637 17.4765 29.7828 16.9869C28.602 16.4972 27.3357 16.2468 26.0574 16.25C20.6971 16.25 16.3334 20.6126 16.3313 25.9751C16.3313 27.6889 16.7787 29.3616 17.6291 30.8371L16.25 35.8757L21.4056 34.5226C22.8317 35.2989 24.4294 35.706 26.0531 35.7067H26.0574C31.4167 35.7067 35.7803 31.3441 35.7825 25.9816C35.7862 24.7038 35.5366 23.4379 35.0481 22.2572C34.5596 21.0764 33.8419 20.0042 32.9366 19.1024ZM26.0574 34.0654H26.0542C24.6063 34.0656 23.1851 33.6761 21.9397 32.9377L21.645 32.7622L18.5857 33.5649L19.4014 30.5825L19.2097 30.277C18.4002 28.9883 17.9717 27.497 17.9736 25.9751C17.9757 21.5183 21.6017 17.8924 26.0607 17.8924C27.1226 17.89 28.1745 18.0983 29.1554 18.5052C30.1363 18.912 31.0267 19.5094 31.7752 20.2627C32.5278 21.0124 33.1242 21.9038 33.5301 22.8854C33.936 23.8671 34.1434 24.9194 34.1402 25.9816C34.138 30.4384 30.5121 34.0654 26.0574 34.0654ZM30.4915 28.0107C30.2477 27.8883 29.0539 27.3011 28.8307 27.2199C28.6087 27.1386 28.4472 27.0985 28.2847 27.3412C28.1222 27.5839 27.6564 28.1309 27.5145 28.2934C27.3726 28.4559 27.2307 28.4754 26.988 28.3541C26.7453 28.2328 25.9621 27.976 25.0337 27.1484C24.3111 26.5038 23.8236 25.7086 23.6817 25.4649C23.5397 25.2211 23.6665 25.09 23.7889 24.9687C23.8983 24.8604 24.0316 24.6849 24.1529 24.5429C24.2742 24.401 24.3143 24.3003 24.3956 24.1378C24.4768 23.9753 24.4367 23.8334 24.375 23.712C24.3143 23.5896 23.8279 22.3936 23.6253 21.9072C23.4292 21.4359 23.2288 21.4988 23.0793 21.4923C22.9245 21.4859 22.7695 21.4831 22.6146 21.4836C22.4914 21.4868 22.3701 21.5153 22.2584 21.5675C22.1468 21.6197 22.0471 21.6944 21.9657 21.7869C21.7425 22.0307 21.1152 22.6179 21.1152 23.8139C21.1152 25.0099 21.9862 26.1658 22.1076 26.3283C22.2289 26.4908 23.8214 28.9445 26.2589 29.9975C26.8396 30.2478 27.2924 30.3973 27.6445 30.5099C28.2262 30.6952 28.756 30.6681 29.1752 30.6064C29.6422 30.537 30.6128 30.0192 30.8154 29.4515C31.018 28.8839 31.018 28.3974 30.9573 28.2956C30.8967 28.1938 30.7331 28.132 30.4915 28.0107Z" fill="white"/>
</svg>
