<svg width="86" height="85" viewBox="0 0 86 85" fill="none" xmlns="http://www.w3.org/2000/svg">
<rect x="0.5" width="85" height="85" rx="42.5" fill="#CAFFCC" fill-opacity="0.61"/>
<path d="M54.0666 39.55V32.45C54.0666 28.8 51.0833 25.8334 47.45 25.8334H32.95C29.3 25.8334 26.3333 28.8 26.3333 32.45V52.55C26.3333 56.1834 29.3 59.1667 32.95 59.1667H54.9666C55.0333 59.1667 55.1 59.1334 55.1666 59.1167C55.3166 59.1334 55.4666 59.1667 55.6166 59.1667C57.85 59.1667 59.6666 57.45 59.6666 55.3334V45.8167C59.6666 42.6834 57.25 40.1 54.0666 39.55ZM47.65 33.95C47.65 34.6334 47.0833 35.2 46.4 35.2H34.4166C33.7166 35.2 33.1666 34.6334 33.1666 33.95C33.1666 33.25 33.7166 32.7 34.4166 32.7H46.4C47.0833 32.7 47.65 33.25 47.65 33.95ZM34.4166 41.25H46.4C47.0833 41.25 47.65 41.8 47.65 42.5C47.65 43.1834 47.0833 43.75 46.4 43.75H34.4166C33.7166 43.75 33.1666 43.1834 33.1666 42.5C33.1666 41.8 33.7166 41.25 34.4166 41.25ZM39.1333 51.0334C39.1333 51.7167 38.5833 52.2834 37.8833 52.2834H34.4666C33.7666 52.2834 33.2166 51.7167 33.2166 51.0334C33.2166 50.3334 33.7666 49.7834 34.4666 49.7834H37.8833C38.5833 49.7834 39.1333 50.3334 39.1333 51.0334ZM57.1666 55.3334C57.1666 56.0667 56.4666 56.6667 55.6166 56.6667C54.75 56.6667 54.0666 56.0667 54.0666 55.3334V42.1C55.85 42.5834 57.1666 44.0667 57.1666 45.8167V55.3334Z" fill="#62C540"/>
</svg>
