<svg width="86" height="85" viewBox="0 0 86 85" fill="none" xmlns="http://www.w3.org/2000/svg">
<rect x="0.5" width="85" height="85" rx="42.5" fill="#CAFFCC" fill-opacity="0.61"/>
<path d="M52.8334 39.6834V35.7C52.8334 30.2834 48.4167 25.8667 43 25.8667C37.5834 25.8667 33.1667 30.2834 33.1667 35.7V39.6834C30.2334 40.3 28.0167 42.9167 28.0167 46.0334V52.6834C28.0167 56.2834 30.9334 59.2001 34.5334 59.2001H51.4834C55.0667 59.2001 57.9834 56.2834 57.9834 52.6834V46.0334C57.9834 42.9167 55.7667 40.3 52.8334 39.6834ZM44.25 50.3334V52.8001C44.25 53.4834 43.6834 54.0501 43 54.0501C42.3167 54.0501 41.75 53.4834 41.75 52.8001V50.3334C40.7334 49.85 40.0334 48.8334 40.0334 47.65C40.0334 46.0167 41.3667 44.6834 43 44.6834C44.6334 44.6834 45.9667 46.0167 45.9667 47.65C45.9667 48.8334 45.2667 49.85 44.25 50.3334ZM35.6667 39.5334V35.7C35.6667 31.65 38.95 28.3667 43 28.3667C47.05 28.3667 50.3334 31.65 50.3334 35.7V39.5334H35.6667Z" fill="#62C540"/>
</svg>
