<svg width="51" height="52" viewBox="0 0 51 52" fill="none" xmlns="http://www.w3.org/2000/svg">
<rect y="0.5" width="51" height="51" rx="25.5" fill="#1563B7"/>
<path d="M26 15.1666C20.0265 15.1666 15.1666 20.0265 15.1666 26V30.4882C15.1666 31.5975 16.1384 32.5 17.3333 32.5H18.4166C18.7039 32.5 18.9795 32.3858 19.1827 32.1826C19.3858 31.9795 19.5 31.7039 19.5 31.4166V25.845C19.5 25.5577 19.3858 25.2822 19.1827 25.079C18.9795 24.8758 18.7039 24.7617 18.4166 24.7617H17.433C18.0353 20.5692 21.6428 17.3333 26 17.3333C30.3571 17.3333 33.9646 20.5692 34.5669 24.7617H33.5833C33.296 24.7617 33.0204 24.8758 32.8173 25.079C32.6141 25.2822 32.5 25.5577 32.5 25.845V32.5C32.5 33.6949 31.5282 34.6666 30.3333 34.6666H28.1666V33.5833H23.8333V36.8333H30.3333C32.7231 36.8333 34.6666 34.8898 34.6666 32.5C35.8615 32.5 36.8333 31.5975 36.8333 30.4882V26C36.8333 20.0265 31.9734 15.1666 26 15.1666Z" fill="white"/>
</svg>
