<svg width="98" height="64" viewBox="0 0 98 64" fill="none" xmlns="http://www.w3.org/2000/svg">
<g clip-path="url(#clip0_4470_2996)">
<path d="M33.6667 14C38.3872 17.881 44.3845 18.0496 51.6587 14.5058C57.1408 16.4397 60.749 17.7011 62.4835 18.2899L83.0508 39L96.2181 32.6658" stroke="#1563B7" stroke-width="2" stroke-linecap="round" stroke-linejoin="round"/>
<path d="M48.3707 2.78629L29.3701 6.01257L20.7592 12L9.03564 7.13849" stroke="#1563B7" stroke-width="2" stroke-linecap="round" stroke-linejoin="round"/>
<path fill-rule="evenodd" clip-rule="evenodd" d="M26.9917 30.3902C29.1193 32.3392 29.2357 35.6136 27.2517 37.7037L23.7863 41.3545C21.8024 43.4446 18.4693 43.5589 16.3418 41.6098C14.2142 39.6608 14.0978 36.3864 16.0818 34.2963L19.5472 30.6456C21.5311 28.5554 24.8642 28.4411 26.9917 30.3902Z" stroke="#1563B7" stroke-width="2" stroke-linecap="round" stroke-linejoin="round"/>
<path fill-rule="evenodd" clip-rule="evenodd" d="M40.0247 32.4135C42.1103 34.3952 42.2244 37.7245 40.2796 39.8497L31.6065 49.3268C29.6617 51.452 26.3943 51.5683 24.3088 49.5865C22.2232 47.6048 22.1091 44.2755 24.0539 42.1503L32.727 32.6732C34.6718 30.548 37.9392 30.4317 40.0247 32.4135Z" stroke="#1563B7" stroke-width="2" stroke-linecap="round" stroke-linejoin="round"/>
<path fill-rule="evenodd" clip-rule="evenodd" d="M48.6373 39.941C50.8757 42.4221 51.4091 45.3839 49.4821 47.499L41.7142 56.0256C39.7872 58.1408 36.4758 58.5675 33.9255 56.1065C31.3753 53.6455 31.1141 50.307 33.0411 48.1919L40.809 39.6653C42.736 37.5501 46.399 37.46 48.6373 39.941Z" stroke="#1563B7" stroke-width="2" stroke-linecap="round" stroke-linejoin="round"/>
<path fill-rule="evenodd" clip-rule="evenodd" d="M55.9952 48.3779C58.1183 50.3097 58.2345 53.5552 56.2547 55.6268L50.7671 61.369C48.7873 63.4406 45.4613 63.554 43.3382 61.6221C41.2152 59.6903 41.099 56.4448 43.0788 54.3732L48.5664 48.631C50.5462 46.5594 53.8722 46.446 55.9952 48.3779Z" stroke="#1563B7" stroke-width="2" stroke-linecap="round" stroke-linejoin="round"/>
<path fill-rule="evenodd" clip-rule="evenodd" d="M60.2615 38.448C62.3365 36.4686 65.643 36.5257 67.6468 38.5754L73.2009 44.2567C75.2047 46.3064 75.1469 49.5726 73.072 51.552C70.997 53.5314 67.6905 53.4743 65.6867 51.4246L60.1326 45.7433C58.1288 43.6936 58.1866 40.4274 60.2615 38.448Z" stroke="#1563B7" stroke-width="2" stroke-linecap="round" stroke-linejoin="round"/>
<path d="M63.7376 49.6321L64.3885 50.3715C65.8145 51.9876 66.0093 54.9331 64.5354 56.4967L64.2905 56.7561C62.6846 58.4565 60.1256 58.4075 58.5748 56.6467L56.6667 54.4678" stroke="#1563B7" stroke-width="2" stroke-linecap="round" stroke-linejoin="round"/>
<path d="M83.1609 39.1062C84.3151 41.0096 84.8868 45.163 83.3186 46.7215L82.4556 47.5792C80.5014 49.5214 77.3873 49.4654 75.5001 47.4542C75.4971 47.4511 75.2194 47.1528 74.6667 46.5593" stroke="#1563B7" stroke-width="2" stroke-linecap="round" stroke-linejoin="round"/>
<path d="M88.6667 8.15008L82.3611 11.4613L68.9447 1L48.2473 2.61069L33.8011 14.1079" stroke="#1563B7" stroke-width="2" stroke-linecap="round" stroke-linejoin="round"/>
<path d="M1.54272 31.9414L14.4542 37.7038" stroke="#1563B7" stroke-width="2" stroke-linecap="round" stroke-linejoin="round"/>
</g>
<defs>
<clipPath id="clip0_4470_2996">
<rect width="97" height="64" fill="white" transform="translate(0.666748)"/>
</clipPath>
</defs>
</svg>
