<svg width="77" height="78" viewBox="0 0 77 78" fill="none" xmlns="http://www.w3.org/2000/svg">
<g clip-path="url(#clip0_4470_2969)">
<path fill-rule="evenodd" clip-rule="evenodd" d="M56.5252 44.7215C50.3885 48.2645 42.5416 46.1619 38.9986 40.0253C35.4555 33.8886 37.5581 26.0416 43.6948 22.4986C49.8315 18.9556 57.6784 21.0582 61.2215 27.1949C64.7645 33.3315 62.6619 41.1785 56.5252 44.7215Z" stroke="#1563B7" stroke-width="2" stroke-linecap="round" stroke-linejoin="round"/>
<path d="M56.6382 49.4248C48.8268 52.6608 39.6368 49.6842 35.2948 42.1637C30.5708 33.9814 33.3742 23.5188 41.5565 18.7948C49.7387 14.0708 60.2013 16.8742 64.9253 25.0565C69.2799 32.5988 67.2383 42.0788 60.4836 47.2156" stroke="#1563B7" stroke-width="2" stroke-linecap="round" stroke-linejoin="round"/>
<path fill-rule="evenodd" clip-rule="evenodd" d="M61.3366 53.0551C59.8025 53.9409 59.2768 55.9026 60.1626 57.4368L69.9356 74.7105C70.8213 76.2447 72.7831 76.7703 74.3172 75.8846C75.8514 74.9988 76.377 73.0371 75.4913 71.5029L65.7183 54.2292C64.8325 52.695 62.8708 52.1693 61.3366 53.0551Z" stroke="#1563B7" stroke-width="2" stroke-linecap="round" stroke-linejoin="round"/>
<path d="M56.8118 49.4945L59.8814 54.8112" stroke="#1563B7" stroke-width="2" stroke-linecap="round" stroke-linejoin="round"/>
<path d="M60.5156 47.3561L63.5852 52.6728" stroke="#1563B7" stroke-width="2" stroke-linecap="round" stroke-linejoin="round"/>
<path d="M64.056 64.34C50.4275 64.34 29.9849 64.34 2.728 64.34C1.77365 64.34 1 63.5663 1 62.612V3.228C1 2.27365 1.77365 1.5 2.728 1.5H73.576C74.5303 1.5 75.304 2.27365 75.304 3.228V62.612C75.304 63.5663 74.5303 64.34 73.576 64.34C72.645 64.34 71.9467 64.34 71.4811 64.34" stroke="#1563B7" stroke-width="2" stroke-linecap="round" stroke-linejoin="round"/>
<path d="M17.416 5.82H54.3992" stroke="#1563B7" stroke-width="2" stroke-linecap="round" stroke-linejoin="round"/>
<path d="M17.416 9.82H34.3992" stroke="#1563B7" stroke-width="2" stroke-linecap="round" stroke-linejoin="round"/>
<path d="M39.416 9.82H43.416" stroke="#1563B7" stroke-width="2" stroke-linecap="round" stroke-linejoin="round"/>
<path d="M12.2518 5.89892H11.0858" stroke="#1563B7" stroke-width="2" stroke-linecap="round" stroke-linejoin="round"/>
<path d="M7.06774 5.89892H5.90173" stroke="#1563B7" stroke-width="2" stroke-linecap="round" stroke-linejoin="round"/>
<path d="M7.5426 46.9101C14.1168 46.9101 15.9026 35.1951 20.9356 35.1951C25.9685 35.1951 26.9417 41.9943 31.603 41.9943C32.6068 41.9943 33.4493 41.3024 34.2048 40.2166" stroke="#1563B7" stroke-width="2" stroke-linecap="round" stroke-linejoin="round"/>
<path d="M62.4836 21.702C63.9921 18.5981 65.8641 16.188 68.7406 16.188" stroke="#1563B7" stroke-width="2" stroke-linecap="round" stroke-linejoin="round"/>
<path fill-rule="evenodd" clip-rule="evenodd" d="M20.6055 30.4431V24.828C20.6055 24.3508 20.2186 23.964 19.7415 23.964H11.368C10.8909 23.964 10.504 24.3508 10.504 24.828V27.9785C10.504 28.4557 10.8909 28.8425 11.368 28.8425H18.379L20.6055 30.4431Z" stroke="#1563B7" stroke-width="2" stroke-linecap="round" stroke-linejoin="round"/>
<path fill-rule="evenodd" clip-rule="evenodd" d="M35.1014 20.9791V15.364C35.1014 14.8868 34.7146 14.5 34.2374 14.5H25.864C25.3868 14.5 25 14.8868 25 15.364V18.5145C25 18.9917 25.3868 19.3785 25.864 19.3785H32.8749L35.1014 20.9791Z" stroke="#1563B7" stroke-width="2" stroke-linecap="round" stroke-linejoin="round"/>
<path d="M20.8737 37.9167V57.7233" stroke="#1563B7" stroke-width="2" stroke-linecap="round" stroke-linejoin="round"/>
<path d="M45.4242 29.9674V40.9674" stroke="#1563B7" stroke-width="2" stroke-linecap="round" stroke-linejoin="round"/>
<path d="M37.7932 36.8372C40.4624 30.4347 43.0232 27.2335 45.4757 27.2335C49.1544 27.2335 51.272 33.6101 54.3993 33.6101C56.4841 33.6101 58.5229 31.2787 60.5156 26.6158" stroke="#1563B7" stroke-width="2" stroke-linecap="round" stroke-linejoin="round"/>
</g>
<defs>
<clipPath id="clip0_4470_2969">
<rect width="77" height="77" fill="white" transform="translate(0 0.5)"/>
</clipPath>
</defs>
</svg>
