<svg width="81" height="80" viewBox="0 0 81 80" fill="none" xmlns="http://www.w3.org/2000/svg">
<g clip-path="url(#clip0_4470_3038)">
<path fill-rule="evenodd" clip-rule="evenodd" d="M75.1653 42.5548C75.1653 62.8049 58.7494 79.2208 38.4993 79.2208C18.2492 79.2208 1.83331 62.8049 1.83331 42.5548C1.83331 22.3047 18.2492 5.88879 38.4993 5.88879V41.9437H75.1653V42.5548Z" stroke="#1563B7" stroke-width="2" stroke-linecap="round" stroke-linejoin="round"/>
<path d="M43.3881 1C63.419 1 79.6983 17.0626 80.0483 37.01" stroke="#1563B7" stroke-width="2" stroke-linecap="round" stroke-linejoin="round"/>
<path d="M80.0483 37.0549H43.3881V1" stroke="#1563B7" stroke-width="2" stroke-linecap="round" stroke-linejoin="round"/>
<path d="M27.3945 46.7689C26.474 43.8762 20.1859 43.8762 20.1859 47.8411C20.1859 49.9938 22.1693 50.7617 24.3607 51.5386C26.2055 52.1926 28.0739 52.8455 28.0739 54.9559C28.0739 59.5733 20.5203 58.5417 20.1859 55.9633" stroke="#1563B7" stroke-width="2" stroke-linecap="round" stroke-linejoin="round"/>
<path d="M24.0224 44.7176V42.0373" stroke="#1563B7" stroke-width="2" stroke-linecap="round" stroke-linejoin="round"/>
<path d="M24.0224 60.9824V58.3021" stroke="#1563B7" stroke-width="2" stroke-linecap="round" stroke-linejoin="round"/>
<path d="M23.9825 63.2985C30.6924 63.2985 36.1318 57.8591 36.1318 51.1492C36.1318 44.4394 30.6924 39 23.9825 39C17.2727 39 11.8333 44.4394 11.8333 51.1492C11.8333 57.8591 17.2727 63.2985 23.9825 63.2985Z" stroke="#1563B7" stroke-width="2" stroke-linecap="round" stroke-linejoin="round"/>
<path fill-rule="evenodd" clip-rule="evenodd" d="M49.8333 24.4647L56.7093 32.0188L69.4579 18.6004L66.3842 15L56.7093 24.4647L53.3057 20.8956L49.8333 24.4647Z" stroke="#1563B7" stroke-width="2" stroke-linecap="round" stroke-linejoin="round"/>
</g>
<defs>
<clipPath id="clip0_4470_3038">
<rect width="80" height="80" fill="white" transform="translate(0.833313)"/>
</clipPath>
</defs>
</svg>
