<svg width="81" height="80" viewBox="0 0 81 80" fill="none" xmlns="http://www.w3.org/2000/svg">
<g clip-path="url(#clip0_4473_4932)">
<path d="M40.8333 79C62.3724 79 79.8333 61.5391 79.8333 40C79.8333 18.4609 62.3724 1 40.8333 1C19.2942 1 1.83331 18.4609 1.83331 40C1.83331 61.5391 19.2942 79 40.8333 79Z" stroke="#1563B7" stroke-width="2" stroke-linecap="round" stroke-linejoin="round"/>
<path d="M40.5817 41L60.1203 59.4457" stroke="#1563B7" stroke-width="2" stroke-linecap="round" stroke-linejoin="round"/>
<path d="M59.8333 25C61.4901 25 62.8333 23.6569 62.8333 22C62.8333 20.3431 61.4901 19 59.8333 19C58.1764 19 56.8333 20.3431 56.8333 22C56.8333 23.6569 58.1764 25 59.8333 25Z" stroke="#1563B7" stroke-width="2" stroke-linecap="round" stroke-linejoin="round"/>
<path d="M59.8333 62C61.4901 62 62.8333 60.6569 62.8333 59C62.8333 57.3431 61.4901 56 59.8333 56C58.1764 56 56.8333 57.3431 56.8333 59C56.8333 60.6569 58.1764 62 59.8333 62Z" stroke="#1563B7" stroke-width="2" stroke-linecap="round" stroke-linejoin="round"/>
<path d="M22.8333 25C24.4902 25 25.8333 23.6569 25.8333 22C25.8333 20.3431 24.4902 19 22.8333 19C21.1765 19 19.8333 20.3431 19.8333 22C19.8333 23.6569 21.1765 25 22.8333 25Z" stroke="#1563B7" stroke-width="2" stroke-linecap="round" stroke-linejoin="round"/>
<path d="M22.8333 62C24.4902 62 25.8333 60.6569 25.8333 59C25.8333 57.3431 24.4902 56 22.8333 56C21.1765 56 19.8333 57.3431 19.8333 59C19.8333 60.6569 21.1765 62 22.8333 62Z" stroke="#1563B7" stroke-width="2" stroke-linecap="round" stroke-linejoin="round"/>
<path d="M16.8333 43C18.4902 43 19.8333 41.6569 19.8333 40C19.8333 38.3431 18.4902 37 16.8333 37C15.1765 37 13.8333 38.3431 13.8333 40C13.8333 41.6569 15.1765 43 16.8333 43Z" stroke="#1563B7" stroke-width="2" stroke-linecap="round" stroke-linejoin="round"/>
<path d="M65.8333 43C67.4901 43 68.8333 41.6569 68.8333 40C68.8333 38.3431 67.4901 37 65.8333 37C64.1764 37 62.8333 38.3431 62.8333 40C62.8333 41.6569 64.1764 43 65.8333 43Z" stroke="#1563B7" stroke-width="2" stroke-linecap="round" stroke-linejoin="round"/>
<path d="M40.8333 44C42.4901 44 43.8333 42.6569 43.8333 41C43.8333 39.3431 42.4901 38 40.8333 38C39.1764 38 37.8333 39.3431 37.8333 41C37.8333 42.6569 39.1764 44 40.8333 44Z" stroke="#1563B7" stroke-width="2" stroke-linecap="round" stroke-linejoin="round"/>
<path d="M40.8333 19C42.4901 19 43.8333 17.6569 43.8333 16C43.8333 14.3431 42.4901 13 40.8333 13C39.1764 13 37.8333 14.3431 37.8333 16C37.8333 17.6569 39.1764 19 40.8333 19Z" stroke="#1563B7" stroke-width="2" stroke-linecap="round" stroke-linejoin="round"/>
</g>
<defs>
<clipPath id="clip0_4473_4932">
<rect width="80" height="80" fill="white" transform="translate(0.833313)"/>
</clipPath>
</defs>
</svg>
